<?xml version="1.0" encoding="UTF-8" standalone="no"?>
<svg
   inkscape:version="1.1.2 (b8e25be833, 2022-02-05)"
   sodipodi:docname="pmf_logo3-eng3-path.svg"
   id="svg39"
   version="1.1"
   viewBox="0 0 480 160"
   height="160"
   width="480"
   xmlns:inkscape="http://www.inkscape.org/namespaces/inkscape"
   xmlns:sodipodi="http://sodipodi.sourceforge.net/DTD/sodipodi-0.dtd"
   xmlns="http://www.w3.org/2000/svg"
   xmlns:svg="http://www.w3.org/2000/svg"
   xmlns:rdf="http://www.w3.org/1999/02/22-rdf-syntax-ns#"
   xmlns:x="adobe:ns:meta/">
  <sodipodi:namedview
     id="namedview41"
     pagecolor="#ffffff"
     bordercolor="#666666"
     borderopacity="1.0"
     inkscape:pageshadow="2"
     inkscape:pageopacity="0.0"
     inkscape:pagecheckerboard="0"
     showgrid="false"
     inkscape:zoom="2.5146485"
     inkscape:cx="245.36232"
     inkscape:cy="116.11961"
     inkscape:window-width="1920"
     inkscape:window-height="1017"
     inkscape:window-x="-8"
     inkscape:window-y="-8"
     inkscape:window-maximized="1"
     inkscape:current-layer="svg39"
     showguides="true"
     inkscape:guide-bbox="true"
     inkscape:snap-global="true"
     inkscape:snap-text-baseline="false"
     inkscape:snap-grids="true">
    <sodipodi:guide
       position="158.31283,110.50967"
       orientation="0,-1"
       id="guide11134" />
    <sodipodi:guide
       position="222.02,124.5"
       orientation="0,-1"
       id="guide11136" />
    <sodipodi:guide
       position="163.65554,157.75044"
       orientation="1,0"
       id="guide31127" />
    <sodipodi:guide
       position="366.11599,66.080844"
       orientation="1,0"
       id="guide31129" />
    <sodipodi:guide
       position="332.047,91.984"
       orientation="0,-1"
       id="guide31211" />
    <sodipodi:guide
       position="343.612,73.5"
       orientation="0,-1"
       id="guide31213" />
    <sodipodi:guide
       position="470.04582,34.733983"
       orientation="1,0"
       id="guide78175" />
    <sodipodi:guide
       position="249.959,62.984"
       orientation="0,-1"
       id="guide101566" />
    <sodipodi:guide
       position="252.13,44.5"
       orientation="0,-1"
       id="guide101568" />
  </sodipodi:namedview>
  <metadata
     id="metadata26">
<?xpacket begin="﻿" id="W5M0MpCehiHzreSzNTczkc9d"?>    <x:xmpmeta
       x:xmptk="Adobe XMP Core 5.6-c142 79.160924, 2017/07/13-01:06:39        ">
      <rdf:RDF>
        <rdf:Description
           rdf:about="" />
      </rdf:RDF>
    </x:xmpmeta>
<?xpacket end="w"?>  </metadata>
  <defs
     id="defs30">
    <style
       id="style28">
      .cls-1 {
        fill: #ba1e1e;
      }

      .cls-1, .cls-2, .cls-3 {
        fill-rule: evenodd;
      }

      .cls-2 {
        fill: #797979;
      }

      .cls-3 {
        fill: #25303e;
      }
    </style>
  </defs>
  <path
     class="cls-1"
     d="m 19.382213,34.487906 0.178418,-0.095 -0.102539,0.182757 z M 115.80116,37.505979 124.4473,2.2245861 98.202305,27.113612 A 57.790261,58.192098 0 0 0 41.292861,126.46836 l -8.541543,34.75893 26.084008,-24.635 -0.10254,-0.0733 A 57.77898,58.180739 0 0 0 115.80116,37.504946 Z M 78.266568,133.00011 A 50.901654,51.255592 0 1 1 129.21027,81.744528 50.977533,51.331999 0 0 1 78.266568,133.00011 Z M 98.400209,51.107436 93.23119,60.032585 q -5.059301,8.738261 -10.111424,17.479622 a 0.55473891,0.55859622 0 0 1 -0.558841,0.31905 c -2.35841,-0.01032 -4.716818,-0.01341 -7.075227,0 A 0.63061818,0.63500311 0 0 1 74.861232,77.458516 Q 70.317704,69.730062 65.761871,62.007804 62.722601,56.845179 59.686403,51.682553 c -0.02975,-0.05059 -0.06766,-0.09602 -0.148682,-0.206506 -0.884915,0.649458 -1.780084,1.270005 -2.636292,1.94218 a 34.850114,35.09244 0 0 0 -13.202988,22.992275 36.082639,36.333535 0 0 0 -0.218412,7.684054 35.041862,35.285521 0 0 0 3.987764,13.963875 33.940587,34.176589 0 0 0 4.586594,6.696959 35.991378,36.24164 0 0 0 10.171921,8.06815 0.50039297,0.50387239 0 0 1 0.24507,0.35003 c 0.01435,2.19825 0.01025,4.39545 0.01025,6.6763 A 41.491599,41.780106 0 0 1 49.931818,111.58966 39.872502,40.14975 0 0 1 37.789084,88.254599 41.183981,41.470349 0 0 1 62.619035,42.875111 L 79.058174,71.006264 95.599853,42.785281 A 40.833297,41.117226 0 0 1 121.25217,82.805964 40.649751,40.932404 0 0 1 95.645996,119.9614 c 0,-2.1745 0,-4.35521 0.0123,-6.53694 a 0.55781511,0.56169381 0 0 1 0.283009,-0.3841 35.610958,35.858574 0 0 0 7.663805,-5.28549 34.443033,34.682528 0 0 0 8.56616,-11.860614 35.301287,35.54675 0 0 0 2.95929,-17.055255 34.844986,35.087276 0 0 0 -3.80523,-13.784213 34.15182,34.38929 0 0 0 -6.2252,-8.615392 35.698116,35.946338 0 0 0 -6.699935,-5.33196 z m -4.970093,28.550358 v 40.681496 h -6.104177 q -0.07383,-17.44968 -0.147658,-34.89316 h -16.64832 q 0.146631,17.43316 0.293264,34.87251 H 64.738528 V 79.657794 Z"
     id="path32"
     style="stroke-width:1.02894" />
  <path
     class="cls-3"
     d="M 76.565439,160.19477 A 78.679615,79.226704 0 0 1 0.10682948,99.998541 l 6.42820392,-1.619 A 72.187837,72.689786 0 1 0 54.266164,11.413029 L 52.221525,5.0557708 A 78.93494,79.483804 0 1 1 76.565439,160.19477 Z"
     id="path37"
     style="stroke-width:1.02894" />
  <g
     aria-label="University of Niš"
     transform="scale(1.1144181,0.89732929)"
     id="text9480"
     style="font-size:22.4255px;line-height:1.25;-inkscape-font-specification:'sans-serif, Normal';fill:#797979;stroke:#797979;stroke-width:0.361">
    <path
       d="m 159.56508,48.165212 q 0,1.773893 -0.3942,3.098837 -0.38325,1.313994 -1.2702,2.18999 -0.84314,0.832196 -1.97099,1.215445 -1.12784,0.383248 -2.62799,0.383248 -1.53299,0 -2.67179,-0.405148 -1.13879,-0.405148 -1.91624,-1.193545 -0.88694,-0.897896 -1.28114,-2.16809 -0.38325,-1.270195 -0.38325,-3.120737 v -9.756406 h 2.16809 v 9.865906 q 0,1.324944 0.1752,2.091441 0.18615,0.766496 0.6132,1.390644 0.4818,0.711746 1.30304,1.073095 0.8322,0.361348 1.99289,0.361348 1.17165,0 1.99289,-0.350398 0.82125,-0.361349 1.314,-1.084045 0.42705,-0.624148 0.60225,-1.423494 0.18614,-0.810297 0.18614,-2.003841 v -9.920656 h 2.1681 z"
       id="path3391" />
    <path
       d="m 173.76716,54.713284 h -2.05859 v -6.96417 q 0,-0.843146 -0.0986,-1.576793 -0.0985,-0.744596 -0.36135,-1.160695 -0.27375,-0.459898 -0.78839,-0.678897 -0.51465,-0.229949 -1.3359,-0.229949 -0.84314,0 -1.76294,0.416099 -0.9198,0.416098 -1.76294,1.062145 v 9.13226 h -2.05859 V 42.482188 h 2.05859 v 1.357794 q 0.96359,-0.799347 1.99289,-1.248295 1.02929,-0.448948 2.11334,-0.448948 1.98194,0 3.02219,1.193545 1.04024,1.193545 1.04024,3.438285 z"
       id="path3393" />
    <path
       d="m 179.94293,40.434547 h -2.32139 v -2.135241 h 2.32139 z m -0.13139,14.278737 h -2.0586 V 42.482188 h 2.0586 z"
       id="path3395" />
    <path
       d="m 194.46257,42.482188 -4.94938,12.231096 h -2.06954 l -4.91653,-12.231096 h 2.23379 l 3.78869,9.734507 3.75583,-9.734507 z"
       id="path3397" />
    <path
       d="m 207.19736,48.81126 h -9.01181 q 0,1.127845 0.33945,1.970991 0.33945,0.832196 0.93075,1.368744 0.5694,0.525598 1.34684,0.788396 0.7884,0.262799 1.73009,0.262799 1.2483,0 2.50754,-0.492748 1.2702,-0.503697 1.80675,-0.985495 h 0.1095 v 2.24474 q -1.04025,0.437998 -2.1243,0.733647 -1.08404,0.295648 -2.27759,0.295648 -3.04408,0 -4.75227,-1.642492 -1.7082,-1.653443 -1.7082,-4.68658 0,-3.000286 1.63155,-4.763229 1.64249,-1.762942 4.31428,-1.762942 2.47469,0 3.81058,1.445394 1.34684,1.445393 1.34684,4.106232 z m -2.00384,-1.576793 q -0.011,-1.620593 -0.82124,-2.507539 -0.79935,-0.886946 -2.44184,-0.886946 -1.65345,0 -2.63894,0.974545 -0.97455,0.974546 -1.10595,2.41994 z"
       id="path3399" />
    <path
       d="m 217.95022,44.726928 h -0.1095 q -0.4599,-0.1095 -0.8979,-0.1533 -0.42705,-0.05475 -1.01835,-0.05475 -0.95264,0 -1.83959,0.427048 -0.88694,0.416098 -1.70819,1.084045 v 8.683312 H 210.3181 V 42.482188 h 2.05859 v 1.806742 q 1.22639,-0.985496 2.15714,-1.390644 0.9417,-0.416098 1.91624,-0.416098 0.53655,0 0.77745,0.03285 0.2409,0.0219 0.7227,0.09855 z"
       id="path3401" />
    <path
       d="m 228.62642,51.187399 q 0,1.675343 -1.39064,2.748438 -1.3797,1.073095 -3.77774,1.073095 -1.35779,0 -2.49659,-0.317548 -1.12784,-0.328499 -1.89434,-0.711747 v -2.31044 h 0.1095 q 0.97455,0.733647 2.16809,1.171645 1.19355,0.427048 2.28854,0.427048 1.3578,0 2.12429,-0.437998 0.7665,-0.437998 0.7665,-1.379694 0,-0.722697 -0.4161,-1.094995 -0.4161,-0.372299 -1.59869,-0.635097 -0.438,-0.09855 -1.14975,-0.229949 -0.70079,-0.1314 -1.28114,-0.284699 -1.60964,-0.427048 -2.28854,-1.248295 -0.66795,-0.832196 -0.66795,-2.036691 0,-0.755546 0.3066,-1.423493 0.31755,-0.667947 0.95265,-1.193545 0.61319,-0.514648 1.55489,-0.810296 0.95265,-0.306599 2.12429,-0.306599 1.095,0 2.21189,0.273749 1.12785,0.262799 1.87244,0.646047 v 2.20094 h -0.1095 q -0.78839,-0.580347 -1.91624,-0.974546 -1.12784,-0.405148 -2.21189,-0.405148 -1.12784,0 -1.90529,0.437998 -0.77745,0.427048 -0.77745,1.281145 0,0.755546 0.47085,1.138795 0.4599,0.383248 1.48919,0.624147 0.5694,0.131399 1.2702,0.262799 0.71175,0.131399 1.18259,0.240899 1.43445,0.328498 2.21189,1.127845 0.77745,0.810296 0.77745,2.14619 z"
       id="path3403" />
    <path
       d="m 233.78385,40.434547 h -2.32139 v -2.135241 h 2.32139 z m -0.1314,14.278737 h -2.05859 V 42.482188 h 2.05859 z"
       id="path3405" />
    <path
       d="m 244.0768,54.603784 q -0.58035,0.153299 -1.27019,0.251849 -0.6789,0.09855 -1.21545,0.09855 -1.87244,0 -2.84698,-1.007395 -0.97455,-1.007396 -0.97455,-3.230236 V 44.21228 h -1.39064 v -1.730092 h 1.39064 v -3.514935 h 2.05859 v 3.514935 h 4.24858 v 1.730092 h -4.24858 v 5.573525 q 0,0.963596 0.0438,1.511094 0.0438,0.536547 0.3066,1.007395 0.2409,0.437998 0.657,0.646047 0.42704,0.197099 1.29209,0.197099 0.5037,0 1.0512,-0.142349 0.54749,-0.153299 0.78839,-0.251849 h 0.1095 z"
       id="path3407" />
    <path
       d="m 257.03059,42.482188 -7.13936,16.742476 h -2.20094 l 2.27759,-5.102678 -4.87273,-11.639798 h 2.23379 l 3.75583,9.06656 3.78868,-9.06656 z"
       id="path3409" />
    <path
       d="m 278.0326,48.603211 q 0,2.989336 -1.53299,4.719429 -1.533,1.730092 -4.10624,1.730092 -2.59513,0 -4.12813,-1.730092 -1.52204,-1.730093 -1.52204,-4.719429 0,-2.989337 1.52204,-4.71943 1.533,-1.741042 4.12813,-1.741042 2.57324,0 4.10624,1.741042 1.53299,1.730093 1.53299,4.71943 z m -2.12429,0 q 0,-2.37614 -0.93075,-3.525885 -0.93074,-1.160695 -2.58419,-1.160695 -1.67534,0 -2.60608,1.160695 -0.9198,1.149745 -0.9198,3.525885 0,2.299489 0.93075,3.493034 0.93074,1.182595 2.59513,1.182595 1.6425,0 2.57324,-1.171645 0.9417,-1.182595 0.9417,-3.503984 z"
       id="path3411" />
    <path
       d="m 287.79996,39.66805 h -0.1095 q -0.33945,-0.09855 -0.88695,-0.197099 -0.54749,-0.1095 -0.96359,-0.1095 -1.32495,0 -1.92719,0.591298 -0.5913,0.580347 -0.5913,2.11334 v 0.416099 h 3.71203 v 1.730092 h -3.64633 v 10.501004 h -2.05859 V 44.21228 h -1.39064 v -1.730092 h 1.39064 v -0.405149 q 0,-2.17904 1.08404,-3.339735 1.08405,-1.171645 3.13169,-1.171645 0.68985,0 1.23734,0.0657 0.55845,0.0657 1.01835,0.153299 z"
       id="path3413" />
    <path
       d="m 309.59036,54.713284 h -2.68274 l -7.73066,-14.585336 v 14.585336 h -2.02574 V 38.408806 h 3.36163 l 7.05177,13.315141 V 38.408806 h 2.02574 z"
       id="path3415" />
    <path
       d="m 315.97419,40.434547 h -2.32139 v -2.135241 h 2.32139 z m -0.1314,14.278737 H 313.7842 V 42.482188 h 2.05859 z"
       id="path3417" />
    <path
       d="m 328.65423,51.187399 q 0,1.675343 -1.39064,2.748438 -1.3797,1.073095 -3.77774,1.073095 -1.35779,0 -2.49659,-0.317548 -1.12784,-0.328499 -1.89434,-0.711747 v -2.31044 h 0.1095 q 0.97455,0.733647 2.16809,1.171645 1.19355,0.427048 2.28854,0.427048 1.3578,0 2.12429,-0.437998 0.7665,-0.437998 0.7665,-1.379694 0,-0.722697 -0.4161,-1.094995 -0.4161,-0.372299 -1.59869,-0.635097 -0.438,-0.09855 -1.14975,-0.229949 -0.70079,-0.1314 -1.28114,-0.284699 -1.60964,-0.427048 -2.28854,-1.248295 -0.66795,-0.832196 -0.66795,-2.036691 0,-0.755546 0.3066,-1.423493 0.31755,-0.667947 0.95265,-1.193545 0.61319,-0.514648 1.55489,-0.810296 0.95264,-0.306599 2.12429,-0.306599 1.09499,0 2.21189,0.273749 1.12784,0.262799 1.87244,0.646047 v 2.20094 h -0.1095 q -0.78839,-0.580347 -1.91624,-0.974546 -1.12784,-0.405148 -2.21189,-0.405148 -1.12785,0 -1.90529,0.437998 -0.77745,0.427048 -0.77745,1.281145 0,0.755546 0.47085,1.138795 0.4599,0.383248 1.48919,0.624147 0.5694,0.131399 1.2702,0.262799 0.71174,0.131399 1.18259,0.240899 1.43445,0.328498 2.21189,1.127845 0.77745,0.810296 0.77745,2.14619 z m -0.8322,-14.826234 -2.49659,4.150031 h -2.48564 l -2.49658,-4.150031 h 1.74104 l 2.02574,2.803187 2.01479,-2.803187 z"
       id="path3419" />
  </g>
  <g
     aria-label="Faculty of Sciences "
     transform="scale(1.1427866,0.87505402)"
     id="text25023"
     style="font-size:28.2757px;line-height:1.25;-inkscape-font-specification:'sans-serif, Normal';fill:#333333;stroke:#25303e;stroke-width:0.539">
    <path
       d="m 156.56907,81.385219 h -10.39629 v 5.798727 h 8.9328 v 2.429943 h -8.9328 v 9.899256 h -2.73369 V 78.955276 h 13.12998 z"
       id="path3441" />
    <path
       d="m 170.08563,99.513145 h -2.58182 v -1.642972 q -0.34516,0.23471 -0.93884,0.662711 -0.57987,0.414195 -1.13213,0.662712 -0.64891,0.317549 -1.4911,0.524647 -0.8422,0.220904 -1.97433,0.220904 -2.08478,0 -3.53446,-1.38065 -1.44969,-1.380649 -1.44969,-3.520656 0,-1.753424 0.74556,-2.830331 0.75935,-1.090713 2.15381,-1.712005 1.40826,-0.621292 3.38259,-0.842196 1.97433,-0.220904 4.23859,-0.331356 v -0.400388 q 0,-0.883616 -0.31755,-1.463489 -0.30374,-0.579873 -0.88361,-0.911228 -0.55226,-0.31755 -1.32543,-0.428002 -0.77316,-0.110452 -1.61536,-0.110452 -1.02168,0 -2.27807,0.27613 -1.25639,0.262324 -2.59562,0.773164 h -0.13806 v -2.63704 q 0.75935,-0.207098 2.19523,-0.455615 1.43588,-0.248517 2.83033,-0.248517 1.62917,0 2.83033,0.27613 1.21497,0.262324 2.09859,0.911229 0.86981,0.635099 1.32542,1.642973 0.45562,1.007874 0.45562,2.498975 z m -2.58182,-3.796785 v -4.29382 q -1.18736,0.06903 -2.80272,0.207097 -1.60155,0.138065 -2.54039,0.400389 -1.11833,0.317549 -1.80865,0.994067 -0.69033,0.662712 -0.69033,1.836264 0,1.325423 0.80078,2.001942 0.80078,0.662711 2.44375,0.662711 1.36684,0 2.49898,-0.524646 1.13213,-0.538454 2.09858,-1.284004 z"
       id="path3443" />
    <path
       d="m 186.48774,98.546691 q -1.29781,0.621292 -2.47136,0.966454 -1.15975,0.345163 -2.47136,0.345163 -1.67059,0 -3.06504,-0.483227 -1.39446,-0.497034 -2.38853,-1.491102 -1.00787,-0.994067 -1.56013,-2.512782 -0.55226,-1.518714 -0.55226,-3.548269 0,-3.782979 2.07097,-5.936792 2.08478,-2.153813 5.49499,-2.153813 1.32542,0 2.59562,0.372775 1.284,0.372776 2.3471,0.911229 v 2.885557 h -0.13806 q -1.18736,-0.925035 -2.45756,-1.422069 -1.25639,-0.497034 -2.45755,-0.497034 -2.20904,0 -3.49305,1.491102 -1.27019,1.477295 -1.27019,4.349045 0,2.788912 1.24258,4.29382 1.25639,1.491101 3.52066,1.491101 0.78697,0 1.60155,-0.207097 0.81458,-0.207098 1.46349,-0.538453 0.56606,-0.289937 1.0631,-0.607486 0.49703,-0.331356 0.78697,-0.566066 h 0.13806 z"
       id="path3445" />
    <path
       d="M 202.59992,99.513145 H 200.0043 V 97.80114 q -1.31162,1.035487 -2.51278,1.587747 -1.20117,0.55226 -2.65085,0.55226 -2.42994,0 -3.78298,-1.477295 -1.35303,-1.491101 -1.35303,-4.362852 V 84.091292 h 2.59562 v 8.78093 q 0,1.173552 0.11045,2.015748 0.11045,0.82839 0.46942,1.422069 0.37277,0.607486 0.96645,0.883615 0.59368,0.27613 1.72582,0.27613 1.00787,0 2.19523,-0.524646 1.20116,-0.524647 2.23665,-1.33923 V 84.091292 h 2.59562 z"
       id="path3447" />
    <path
       d="m 210.33156,99.513145 h -2.59562 V 78.030241 h 2.59562 z"
       id="path3449" />
    <path
       d="m 223.47534,99.375081 q -0.73174,0.19329 -1.60155,0.317549 -0.856,0.124258 -1.53252,0.124258 -2.36091,0 -3.58969,-1.270197 -1.22878,-1.270198 -1.22878,-4.072916 v -8.201057 h -1.75342 v -2.181426 h 1.75342 v -4.431885 h 2.59562 v 4.431885 h 5.35692 v 2.181426 h -5.35692 v 7.027505 q 0,1.214972 0.0552,1.905296 0.0552,0.676519 0.38658,1.270198 0.30374,0.55226 0.82839,0.814583 0.53845,0.248517 1.62917,0.248517 0.6351,0 1.32542,-0.179485 0.69033,-0.193291 0.99407,-0.317549 h 0.13806 z"
       id="path3451" />
    <path
       d="m 239.80842,84.091292 -9.00183,21.110128 h -2.77511 l 2.87175,-6.433825 -6.14389,-14.676303 h 2.81653 l 4.73562,11.431777 4.77705,-11.431777 z"
       id="path3453" />
    <path
       d="m 266.28928,91.809122 q 0,3.769173 -1.93291,5.950599 -1.93291,2.181426 -5.17744,2.181426 -3.27214,0 -5.20505,-2.181426 -1.9191,-2.181426 -1.9191,-5.950599 0,-3.769173 1.9191,-5.950599 1.93291,-2.195233 5.20505,-2.195233 3.24453,0 5.17744,2.195233 1.93291,2.181426 1.93291,5.950599 z m -2.67846,0 q 0,-2.996009 -1.17355,-4.445691 -1.17356,-1.463489 -3.25834,-1.463489 -2.11239,0 -3.28594,1.463489 -1.15975,1.449682 -1.15975,4.445691 0,2.899364 1.17355,4.404271 1.17356,1.491102 3.27214,1.491102 2.07098,0 3.24453,-1.477295 1.18736,-1.491101 1.18736,-4.418078 z"
       id="path3455" />
    <path
       d="m 278.60467,80.543023 h -0.13806 q -0.428,-0.124259 -1.11833,-0.248517 -0.69032,-0.138065 -1.21497,-0.138065 -1.67058,0 -2.42994,0.745551 -0.74555,0.731744 -0.74555,2.664653 v 0.524647 h 4.6804 v 2.181426 h -4.59756 v 13.240427 h -2.59562 V 86.272718 h -1.75343 v -2.181426 h 1.75343 v -0.510841 q 0,-2.747492 1.36684,-4.21098 1.36684,-1.477295 3.94866,-1.477295 0.86981,0 1.56013,0.08284 0.70413,0.08284 1.284,0.193291 z"
       id="path3457" />
    <path
       d="m 305.33405,93.645386 q 0,1.201164 -0.56607,2.374716 -0.55226,1.173552 -1.56013,1.988136 -1.10452,0.883615 -2.58181,1.380649 -1.46349,0.497034 -3.53447,0.497034 -2.22284,0 -4.00388,-0.414195 -1.76723,-0.414195 -3.6035,-1.228778 v -3.42401 h 0.1933 q 1.56013,1.29781 3.60349,2.001941 2.04336,0.704131 3.83821,0.704131 2.54039,0 3.94865,-0.952648 1.42207,-0.952648 1.42207,-2.540395 0,-1.366843 -0.67652,-2.015748 -0.66271,-0.648905 -2.02955,-1.007874 -1.03549,-0.27613 -2.25046,-0.455614 -1.20116,-0.179485 -2.5542,-0.455614 -2.73369,-0.579873 -4.05911,-1.974329 -1.31162,-1.408262 -1.31162,-3.658721 0,-2.581814 2.18143,-4.224787 2.18143,-1.656779 5.5364,-1.656779 2.16762,0 3.97627,0.414194 1.80865,0.414195 3.20311,1.021681 v 3.23072 h -0.19329 q -1.17355,-0.994068 -3.09266,-1.642973 -1.90529,-0.662712 -3.90723,-0.662712 -2.19524,0 -3.53447,0.911229 -1.32542,0.911228 -1.32542,2.347104 0,1.284004 0.66271,2.015748 0.66271,0.731744 2.3333,1.118326 0.88362,0.193291 2.51278,0.469421 1.62917,0.276129 2.7613,0.566066 2.29188,0.607486 3.45162,1.836264 1.15975,1.228777 1.15975,3.437817 z"
       id="path3459" />
    <path
       d="m 320.92158,98.546691 q -1.29781,0.621292 -2.47137,0.966454 -1.15974,0.345163 -2.47136,0.345163 -1.67058,0 -3.06504,-0.483227 -1.39446,-0.497034 -2.38852,-1.491102 -1.00788,-0.994067 -1.56014,-2.512782 -0.55226,-1.518714 -0.55226,-3.548269 0,-3.782979 2.07098,-5.936792 2.08478,-2.153813 5.49498,-2.153813 1.32543,0 2.59562,0.372775 1.28401,0.372776 2.34711,0.911229 v 2.885557 h -0.13807 q -1.18736,-0.925035 -2.45755,-1.422069 -1.2564,-0.497034 -2.45756,-0.497034 -2.20904,0 -3.49304,1.491102 -1.2702,1.477295 -1.2702,4.349045 0,2.788912 1.24258,4.29382 1.25639,1.491101 3.52066,1.491101 0.78697,0 1.60155,-0.207097 0.81459,-0.207098 1.46349,-0.538453 0.56607,-0.289937 1.0631,-0.607486 0.49704,-0.331356 0.78697,-0.566066 h 0.13807 z"
       id="path3461" />
    <path
       d="m 327.03785,81.509477 h -2.92698 v -2.692266 h 2.92698 z m -0.16568,18.003668 h -2.59562 V 84.091292 h 2.59562 z"
       id="path3463" />
    <path
       d="m 344.91727,92.071445 h -11.36275 q 0,1.422069 0.428,2.485169 0.42801,1.049294 1.17356,1.725812 0.71793,0.662712 1.6982,0.994067 0.99406,0.331356 2.18142,0.331356 1.57394,0 3.16169,-0.621292 1.60155,-0.635099 2.27807,-1.242584 h 0.13807 v 2.830331 q -1.31162,0.55226 -2.67846,0.925035 -1.36685,0.372775 -2.87176,0.372775 -3.8382,0 -5.99201,-2.070974 -2.15382,-2.08478 -2.15382,-5.909179 0,-3.78298 2.05717,-6.005825 2.07097,-2.222846 5.43976,-2.222846 3.12027,0 4.80466,1.822458 1.6982,1.822457 1.6982,5.177435 z m -2.52659,-1.988135 q -0.0138,-2.043361 -1.03549,-3.161687 -1.00787,-1.118326 -3.07885,-1.118326 -2.08478,0 -3.32736,1.228778 -1.22878,1.228778 -1.39446,3.051235 z"
       id="path3465" />
    <path
       d="m 361.74738,99.513145 h -2.59562 v -8.78093 q 0,-1.0631 -0.12426,-1.988135 -0.12426,-0.938841 -0.45561,-1.463488 -0.34517,-0.579873 -0.99407,-0.856003 -0.64891,-0.289936 -1.68439,-0.289936 -1.0631,0 -2.22285,0.524647 -1.15975,0.524646 -2.22285,1.339229 v 11.514616 h -2.59562 V 84.091292 h 2.59562 v 1.712005 q 1.21498,-1.007874 2.51279,-1.57394 1.29781,-0.566067 2.66465,-0.566067 2.49898,0 3.81059,1.504908 1.31162,1.504908 1.31162,4.335239 z"
       id="path3467" />
    <path
       d="m 378.1495,98.546691 q -1.29781,0.621292 -2.47137,0.966454 -1.15974,0.345163 -2.47136,0.345163 -1.67058,0 -3.06504,-0.483227 -1.39446,-0.497034 -2.38852,-1.491102 -1.00788,-0.994067 -1.56014,-2.512782 -0.55226,-1.518714 -0.55226,-3.548269 0,-3.782979 2.07098,-5.936792 2.08478,-2.153813 5.49498,-2.153813 1.32543,0 2.59562,0.372775 1.28401,0.372776 2.34711,0.911229 v 2.885557 h -0.13807 q -1.18736,-0.925035 -2.45755,-1.422069 -1.25639,-0.497034 -2.45756,-0.497034 -2.20904,0 -3.49304,1.491102 -1.2702,1.477295 -1.2702,4.349045 0,2.788912 1.24258,4.29382 1.2564,1.491101 3.52066,1.491101 0.78697,0 1.60155,-0.207097 0.81459,-0.207098 1.46349,-0.538453 0.56607,-0.289937 1.0631,-0.607486 0.49704,-0.331356 0.78697,-0.566066 h 0.13807 z"
       id="path3469" />
    <path
       d="m 394.38593,92.071445 h -11.36275 q 0,1.422069 0.428,2.485169 0.428,1.049294 1.17356,1.725812 0.71793,0.662712 1.69819,0.994067 0.99407,0.331356 2.18143,0.331356 1.57394,0 3.16169,-0.621292 1.60155,-0.635099 2.27807,-1.242584 h 0.13806 v 2.830331 q -1.31161,0.55226 -2.67846,0.925035 -1.36684,0.372775 -2.87175,0.372775 -3.8382,0 -5.99202,-2.070974 -2.15381,-2.08478 -2.15381,-5.909179 0,-3.78298 2.05717,-6.005825 2.07097,-2.222846 5.43976,-2.222846 3.12027,0 4.80466,1.822458 1.6982,1.822457 1.6982,5.177435 z m -2.52659,-1.988135 q -0.0138,-2.043361 -1.03549,-3.161687 -1.00787,-1.118326 -3.07885,-1.118326 -2.08478,0 -3.32736,1.228778 -1.22878,1.228778 -1.39446,3.051235 z"
       id="path3471" />
    <path
       d="m 409.33837,95.067454 q 0,2.112394 -1.75342,3.46543 -1.73962,1.353037 -4.76325,1.353037 -1.712,0 -3.14788,-0.400389 -1.42206,-0.414194 -2.38852,-0.897422 v -2.91317 h 0.13807 q 1.22877,0.925035 2.73368,1.477295 1.50491,0.538453 2.88556,0.538453 1.712,0 2.67846,-0.55226 0.96645,-0.552259 0.96645,-1.739618 0,-0.911228 -0.52464,-1.380649 -0.52465,-0.469421 -2.01575,-0.800777 -0.55226,-0.124258 -1.44968,-0.289936 -0.88362,-0.165678 -1.61536,-0.358969 -2.02956,-0.538453 -2.88556,-1.57394 -0.8422,-1.049294 -0.8422,-2.568008 0,-0.952648 0.38658,-1.794844 0.40039,-0.842197 1.20117,-1.504908 0.77316,-0.648905 1.96052,-1.021681 1.20117,-0.386582 2.67846,-0.386582 1.38065,0 2.78891,0.345163 1.42207,0.331356 2.36091,0.814583 v 2.775105 h -0.13806 q -0.99407,-0.731744 -2.41614,-1.228778 -1.42207,-0.51084 -2.78891,-0.51084 -1.42207,0 -2.40233,0.55226 -0.98026,0.538453 -0.98026,1.615359 0,0.952649 0.59368,1.435876 0.57987,0.483227 1.87768,0.78697 0.71794,0.165678 1.60156,0.331356 0.89742,0.165678 1.4911,0.303743 1.80865,0.414195 2.78891,1.422069 0.98026,1.02168 0.98026,2.706072 z"
       id="path3473" />
  </g>
  <g
     aria-label="and Mathematics"
     transform="scale(1.1519326,0.86810635)"
     id="text35149"
     style="font-size:28.0101px;line-height:1.25;-inkscape-font-specification:'sans-serif, Normal';fill:#333333;stroke:#25303e;stroke-width:0.545">
    <path
       d="m 155.58281,132.38498 h -2.55756 v -1.62754 q -0.34192,0.23251 -0.93002,0.65649 -0.57443,0.4103 -1.1215,0.65648 -0.64281,0.31457 -1.47709,0.51972 -0.83429,0.21883 -1.95579,0.21883 -2.0652,0 -3.50126,-1.36768 -1.43607,-1.36768 -1.43607,-3.48759 0,-1.73695 0.73855,-2.80374 0.75223,-1.08047 2.13358,-1.69593 1.39504,-0.61545 3.35082,-0.83428 1.95579,-0.21883 4.19878,-0.32824 v -0.39663 q 0,-0.87532 -0.31457,-1.44974 -0.30088,-0.57443 -0.87531,-0.90267 -0.54707,-0.31457 -1.31297,-0.42398 -0.76591,-0.10942 -1.60019,-0.10942 -1.01208,0 -2.25667,0.27354 -1.24459,0.25986 -2.57124,0.7659 h -0.13677 v -2.61227 q 0.75222,-0.20515 2.17461,-0.45133 1.42239,-0.24619 2.80375,-0.24619 1.61386,0 2.80374,0.27354 1.20356,0.25986 2.07888,0.90267 0.86163,0.62913 1.31297,1.62754 0.45133,0.9984 0.45133,2.4755 z m -2.55756,-3.76112 v -4.25349 q -1.1762,0.0684 -2.77639,0.20515 -1.58651,0.13677 -2.51653,0.39663 -1.10782,0.31457 -1.79166,0.98473 -0.68384,0.65649 -0.68384,1.81902 0,1.31297 0.79325,1.98313 0.79325,0.65649 2.42079,0.65649 1.35401,0 2.47551,-0.51972 1.12149,-0.53339 2.07887,-1.27194 z"
       id="path3495" />
    <path
       d="m 173.30796,132.38498 h -2.57124 v -8.69845 q 0,-1.05311 -0.1231,-1.96946 -0.12309,-0.93002 -0.45133,-1.44974 -0.34192,-0.57443 -0.98473,-0.84796 -0.64281,-0.28722 -1.66857,-0.28722 -1.05311,0 -2.20197,0.51972 -1.14885,0.51972 -2.20196,1.32665 v 11.40646 h -2.57124 v -15.27699 h 2.57124 v 1.69592 q 1.20356,-0.99841 2.48918,-1.55916 1.28562,-0.56074 2.63962,-0.56074 2.4755,0 3.7748,1.49077 1.2993,1.49077 1.2993,4.29451 z"
       id="path3497" />
    <path
       d="m 190.65015,132.38498 h -2.57124 v -1.60019 q -1.10782,0.95738 -2.31138,1.49077 -1.20356,0.5334 -2.61227,0.5334 -2.73536,0 -4.34923,-2.10623 -1.60018,-2.10623 -1.60018,-5.83999 0,-1.94211 0.54707,-3.46024 0.56075,-1.51812 1.50445,-2.58491 0.93002,-1.03944 2.16093,-1.58651 1.24459,-0.54707 2.57124,-0.54707 1.20356,0 2.13358,0.25985 0.93003,0.24619 1.95579,0.77958 v -6.61957 h 2.57124 z m -2.57124,-3.76112 v -8.76684 q -1.03944,-0.46501 -1.86005,-0.64281 -0.82061,-0.17779 -1.79166,-0.17779 -2.16093,0 -3.36449,1.50444 -1.20356,1.50445 -1.20356,4.26717 0,2.72168 0.93002,4.14407 0.93002,1.40871 2.98154,1.40871 1.09415,0 2.21565,-0.47869 1.1215,-0.49236 2.09255,-1.25826 z"
       id="path3499" />
    <path
       d="m 223.89846,132.38498 h -2.708 v -17.54734 l -5.6622,11.93985 h -1.61387 l -5.62116,-11.93985 v 17.54734 h -2.53021 v -20.36477 h 3.69274 l 5.42969,11.33808 5.25189,-11.33808 h 3.76112 z"
       id="path3501" />
    <path
       d="m 241.0355,132.38498 h -2.55757 v -1.62754 q -0.34192,0.23251 -0.93002,0.65649 -0.57442,0.4103 -1.1215,0.65648 -0.64281,0.31457 -1.47709,0.51972 -0.83429,0.21883 -1.95579,0.21883 -2.06519,0 -3.50126,-1.36768 -1.43606,-1.36768 -1.43606,-3.48759 0,-1.73695 0.73854,-2.80374 0.75223,-1.08047 2.13359,-1.69593 1.39503,-0.61545 3.35081,-0.83428 1.95579,-0.21883 4.19878,-0.32824 v -0.39663 q 0,-0.87532 -0.31456,-1.44974 -0.30089,-0.57443 -0.87532,-0.90267 -0.54707,-0.31457 -1.31297,-0.42398 -0.7659,-0.10942 -1.60019,-0.10942 -1.01208,0 -2.25667,0.27354 -1.24459,0.25986 -2.57124,0.7659 h -0.13677 v -2.61227 q 0.75223,-0.20515 2.17461,-0.45133 1.42239,-0.24619 2.80375,-0.24619 1.61386,0 2.80374,0.27354 1.20356,0.25986 2.07888,0.90267 0.86164,0.62913 1.31297,1.62754 0.45134,0.9984 0.45134,2.4755 z m -2.55757,-3.76112 v -4.25349 q -1.1762,0.0684 -2.77639,0.20515 -1.58651,0.13677 -2.51653,0.39663 -1.10782,0.31457 -1.79166,0.98473 -0.68384,0.65649 -0.68384,1.81902 0,1.31297 0.79325,1.98313 0.79326,0.65649 2.4208,0.65649 1.354,0 2.4755,-0.51972 1.1215,-0.53339 2.07887,-1.27194 z"
       id="path3503" />
    <path
       d="m 253.91905,132.24821 q -0.72487,0.19148 -1.58651,0.31457 -0.84796,0.12309 -1.51813,0.12309 -2.33873,0 -3.55597,-1.25827 -1.21723,-1.25826 -1.21723,-4.03466 v -8.12402 h -1.73696 v -2.16093 h 1.73696 v -4.39026 h 2.57124 v 4.39026 h 5.3066 v 2.16093 h -5.3066 v 6.9615 q 0,1.20356 0.0547,1.8874 0.0547,0.67016 0.38295,1.25826 0.30089,0.54707 0.82061,0.80693 0.5334,0.24619 1.61387,0.24619 0.62913,0 1.31297,-0.1778 0.68384,-0.19148 0.98473,-0.31457 h 0.13677 z"
       id="path3505" />
    <path
       d="m 269.79782,132.38498 h -2.57124 v -8.69845 q 0,-1.05311 -0.12309,-1.96946 -0.12309,-0.93002 -0.45133,-1.44974 -0.34192,-0.57443 -0.98473,-0.84796 -0.64281,-0.28722 -1.66857,-0.28722 -1.05312,0 -2.20197,0.51972 -1.14885,0.51972 -2.20196,1.32665 v 11.40646 h -2.57124 v -21.28111 h 2.57124 v 7.70004 q 1.20355,-0.99841 2.48917,-1.55916 1.28562,-0.56074 2.63963,-0.56074 2.4755,0 3.7748,1.49077 1.29929,1.49077 1.29929,4.29451 z"
       id="path3507" />
    <path
       d="m 287.53664,125.01318 h -11.25602 q 0,1.40871 0.42399,2.46183 0.42398,1.03943 1.16252,1.7096 0.7112,0.65648 1.68225,0.98473 0.98473,0.32824 2.16094,0.32824 1.55915,0 3.13198,-0.61546 1.58651,-0.62913 2.25668,-1.23091 h 0.13677 v 2.80375 q -1.2993,0.54707 -2.6533,0.91634 -1.35401,0.36928 -2.84478,0.36928 -3.80215,0 -5.93573,-2.05152 -2.13359,-2.0652 -2.13359,-5.85368 0,-3.74744 2.03785,-5.94941 2.05152,-2.20196 5.38866,-2.20196 3.09096,0 4.75953,1.80533 1.68225,1.80534 1.68225,5.12881 z m -2.50286,-1.96946 q -0.0137,-2.02417 -1.02576,-3.13199 -0.99841,-1.10782 -3.04993,-1.10782 -2.0652,0 -3.29611,1.21724 -1.21723,1.21723 -1.38136,3.02257 z"
       id="path3509" />
    <path
       d="m 313.72773,132.38498 h -2.57124 v -8.69845 q 0,-0.98473 -0.0957,-1.90108 -0.0821,-0.91634 -0.36927,-1.46341 -0.31457,-0.58811 -0.90267,-0.889 -0.5881,-0.30089 -1.69592,-0.30089 -1.08047,0 -2.16094,0.54708 -1.08047,0.53339 -2.16093,1.36768 0.041,0.31456 0.0684,0.73854 0.0274,0.41031 0.0274,0.82061 v 9.77892 h -2.57124 v -8.69845 q 0,-1.01208 -0.0957,-1.91475 -0.0821,-0.91635 -0.36928,-1.46342 -0.31456,-0.5881 -0.90267,-0.87532 -0.5881,-0.30089 -1.69592,-0.30089 -1.05311,0 -2.11991,0.51972 -1.05311,0.51972 -2.10622,1.32665 v 11.40646 h -2.57124 v -15.27699 h 2.57124 v 1.69592 q 1.20356,-0.99841 2.39344,-1.55916 1.20356,-0.56074 2.55756,-0.56074 1.55916,0 2.63962,0.65648 1.09415,0.65649 1.62754,1.81902 1.55916,-1.31298 2.84478,-1.8874 1.28562,-0.5881 2.74904,-0.5881 2.51653,0 3.70641,1.5318 1.20356,1.51812 1.20356,4.25348 z"
       id="path3511" />
    <path
       d="m 330.55019,132.38498 h -2.55756 v -1.62754 q -0.34192,0.23251 -0.93002,0.65649 -0.57443,0.4103 -1.1215,0.65648 -0.64281,0.31457 -1.4771,0.51972 -0.83428,0.21883 -1.95578,0.21883 -2.0652,0 -3.50126,-1.36768 -1.43607,-1.36768 -1.43607,-3.48759 0,-1.73695 0.73855,-2.80374 0.75222,-1.08047 2.13358,-1.69593 1.39504,-0.61545 3.35082,-0.83428 1.95578,-0.21883 4.19878,-0.32824 v -0.39663 q 0,-0.87532 -0.31457,-1.44974 -0.30089,-0.57443 -0.87531,-0.90267 -0.54708,-0.31457 -1.31298,-0.42398 -0.7659,-0.10942 -1.60018,-0.10942 -1.01209,0 -2.25668,0.27354 -1.24459,0.25986 -2.57124,0.7659 h -0.13676 v -2.61227 q 0.75222,-0.20515 2.17461,-0.45133 1.42239,-0.24619 2.80374,-0.24619 1.61387,0 2.80375,0.27354 1.20356,0.25986 2.07887,0.90267 0.86164,0.62913 1.31298,1.62754 0.45133,0.9984 0.45133,2.4755 z m -2.55756,-3.76112 v -4.25349 q -1.17621,0.0684 -2.77639,0.20515 -1.58651,0.13677 -2.51654,0.39663 -1.10782,0.31457 -1.79166,0.98473 -0.68384,0.65649 -0.68384,1.81902 0,1.31297 0.79326,1.98313 0.79325,0.65649 2.42079,0.65649 1.35401,0 2.4755,-0.51972 1.1215,-0.53339 2.07888,-1.27194 z"
       id="path3513" />
    <path
       d="m 343.43375,132.24821 q -0.72487,0.19148 -1.58651,0.31457 -0.84796,0.12309 -1.51813,0.12309 -2.33873,0 -3.55596,-1.25827 -1.21724,-1.25826 -1.21724,-4.03466 v -8.12402 h -1.73695 v -2.16093 h 1.73695 v -4.39026 h 2.57124 v 4.39026 h 5.3066 v 2.16093 h -5.3066 v 6.9615 q 0,1.20356 0.0547,1.8874 0.0547,0.67016 0.38295,1.25826 0.30089,0.54707 0.82061,0.80693 0.53339,0.24619 1.61386,0.24619 0.62913,0 1.31297,-0.1778 0.68384,-0.19148 0.98473,-0.31457 h 0.13677 z"
       id="path3515" />
    <path
       d="m 349.3011,114.55042 h -2.89948 v -2.66697 h 2.89948 z m -0.16412,17.83456 h -2.57124 v -15.27699 h 2.57124 z"
       id="path3517" />
    <path
       d="m 365.52179,131.4276 q -1.28562,0.61546 -2.44815,0.95738 -1.14885,0.34192 -2.44815,0.34192 -1.65489,0 -3.03625,-0.47869 -1.38136,-0.49236 -2.36609,-1.47709 -0.99841,-0.98473 -1.54548,-2.48918 -0.54707,-1.50445 -0.54707,-3.51494 0,-3.74745 2.05152,-5.88103 2.0652,-2.13358 5.44337,-2.13358 1.31297,0 2.57124,0.36927 1.27194,0.36928 2.32506,0.90267 v 2.85846 h -0.13677 q -1.17621,-0.91635 -2.43447,-1.40872 -1.24459,-0.49236 -2.43448,-0.49236 -2.18828,0 -3.46023,1.47709 -1.25826,1.46342 -1.25826,4.3082 0,2.76271 1.23091,4.25348 1.24459,1.4771 3.48758,1.4771 0.77958,0 1.58651,-0.20515 0.80694,-0.20515 1.44975,-0.5334 0.56074,-0.28721 1.05311,-0.60178 0.49236,-0.32824 0.77958,-0.56075 h 0.13677 z"
       id="path3519" />
    <path
       d="m 379.73199,127.98105 q 0,2.09255 -1.73695,3.43288 -1.72328,1.34032 -4.7185,1.34032 -1.69593,0 -3.11831,-0.39662 -1.40872,-0.41031 -2.36609,-0.889 v -2.8858 h 0.13677 q 1.21723,0.91634 2.708,1.46342 1.49078,0.53339 2.85846,0.53339 1.69592,0 2.6533,-0.54707 0.95737,-0.54707 0.95737,-1.72328 0,-0.90267 -0.51972,-1.36768 -0.51971,-0.46501 -1.99681,-0.79325 -0.54707,-0.1231 -1.43606,-0.28722 -0.87532,-0.16412 -1.60019,-0.35559 -2.01049,-0.5334 -2.85845,-1.55916 -0.83429,-1.03944 -0.83429,-2.54389 0,-0.9437 0.38295,-1.77798 0.39663,-0.83429 1.18988,-1.49077 0.76591,-0.64281 1.94211,-1.01209 1.18988,-0.38295 2.6533,-0.38295 1.36768,0 2.76272,0.34192 1.40871,0.32825 2.33873,0.80693 v 2.74904 h -0.13677 q -0.98473,-0.72487 -2.39344,-1.21723 -1.40871,-0.50605 -2.76271,-0.50605 -1.40871,0 -2.37977,0.54708 -0.97105,0.53339 -0.97105,1.60018 0,0.9437 0.5881,1.42239 0.57443,0.47869 1.86005,0.77958 0.71119,0.16412 1.58651,0.32824 0.88899,0.16412 1.47709,0.30089 1.79166,0.41031 2.76272,1.40871 0.97105,1.01209 0.97105,2.68066 z"
       id="path3521" />
  </g>
</svg>
